# xmcd
#
# Track frame offsets:
#	150
#	21237
#	43913
#	63398
#	83559
#	98902
#	115884
#	134071
#	154087
#	173182
#	192011
#	212872
#	231285
#	250290
#	272446
#
# Disc length: 3988 seconds
# Revision: 0
# Processed by: cddbd v1.5.2PL0 Copyright (c) Steve Scherf et al.
# Submitted via: dBpowerAMP V12.0
#
DISCID=d30f920f
DTITLE=Various Artist - Sweet Talking Soul 1965-1990 [CD3 of 3)
DYEAR=2008
DGENRE=R&B
TTITLE0=The Manhattans - Shining Star
TTITLE1=The Manhattans - Girl Of My Dream
TTITLE2=The Manhattans - I'll Never Find Another (Find Another Like You)
TTITLE3=The Manhattans - Just One Moment Away
TTITLE4=The Manhattans - Let Your Love Come Down
TTITLE5=The Manhattans - Honey, Honey
TTITLE6=The Manhattans - Crazy
TTITLE7=The Manhattans - Forever By Your Side
TTITLE8=The Manhattans - You Send Me
TTITLE9=The Manhattans - Don't Say No
TTITLE10=The Manhattans with Regina Belle - Where Did We Go Wrong?
TTITLE11=The Manhattans - All I Need
TTITLE12=The Manhattans - Sweet Talk
TTITLE13=The Manhattans - Why You Wanna Love Me Like That
TTITLE14=The Manhattans - I Won't Stop
EXTD=
EXTT0=
EXTT1=
EXTT2=
EXTT3=
EXTT4=
EXTT5=
EXTT6=
EXTT7=
EXTT8=
EXTT9=
EXTT10=
EXTT11=
EXTT12=
EXTT13=
EXTT14=
PLAYORDER=
